# xmcd CD database file
#
# Track frame offsets:
#	150
#	19517
#	44250
#	60502
#	79130
#	95955
#	119552
#	138727
#	155950
#	174137
#	194867
#	210390
#
# Disc length: 3082 seconds
#
# Revision: 2
# Processed by: cddbd v1.4b41PL1 Copyright (c) Steve Scherf et al.
# Submitted via: Feurio! 1.50.2ß - http://www.feurio.com
#
DISCID=ae0c080c
DTITLE=Hessel - Flotsam
DYEAR=1900
DGENRE=
TTITLE0=Stranger in this town
TTITLE1=Flotsam
TTITLE2=Feeling like a bird
TTITLE3=Maureen
TTITLE4=Into eyes
TTITLE5=Dancing
TTITLE6=Law and order
TTITLE7=Miss you
TTITLE8=Man on the street
TTITLE9=One heart
TTITLE10=Soltry Hill
TTITLE11=Tears of a soldier
EXTD=
EXTT0=
EXTT1=
EXTT2=
EXTT3=
EXTT4=
EXTT5=
EXTT6=
EXTT7=
EXTT8=
EXTT9=
EXTT10=
EXTT11=
PLAYORDER=
